{"title":"Tracker.2010.720p.BRRip.x264.Feel-Free","uid":6413318,"size":2482714886,"categoryP":"video","categoryS":"hd___movies","magnet":"?xt=urn:btih:38c9a6e2091a305b797e73154e2f240481e47f70&amp;dn=Tracker.2010.720p.BRRip.x264.Feel-Free&amp;tr=udp%3A%2F%2Ftracker.openbittorrent.com%3A80&amp;tr=udp%3A%2F%2Fopen.demonii.com%3A1337&amp;tr=udp%3A%2F%2Ftracker.coppersurfer.tk%3A6969&amp;tr=udp%3A%2F%2Fexodus.desync.com%3A6969","seeders":0,"leechers":1,"uploader":"hiest","files":-1,"time":1306074654,"description":"######## ######## ######## ##          ######## ########  ######## ######## \n##       ##       ##       ##          ##       ##     ## ##       ##       \n##       ##       ##       ##          ##       ##     ## ##       ##       \n######   ######   ######   ##          ######   ########  ######   ######   \n##       ##       ##       ##          ##       ##   ##   ##       ##       \n##       ##       ##       ##          ##       ##    ##  ##       ##       \n##       ######## ######## ########    ##       ##     ## ######## ########  \n\n Genre:Action | Adventure | Drama\n Language:English\n IMDb:\n &lt;a href=&quot; http://www.imdb.com/title/tt1414378/&quot; rel=&quot;nofollow&quot; target=&quot;_NEW&quot;&gt; http://www.imdb.com/title/tt1414378/&lt;/a&gt;\n Source:720p.BluRay.X264-7SinS\n\n Format : MPEG-4\n Format profile : Base Media\n Codec ID : isom\n File size : 2.31 GiB\n Duration : 1h 37mn\n Overall bit rate : 3 373 Kbps\n\n Video\n ID : 1\n Format : AVC\n Format/Info : Advanced Video Codec\n Format profile : &lt;a class=&quot;__cf_email__&quot; href=&quot;/cdn-cgi/l/email-protection&quot; data-cfemail=&quot;f5bd9c929db5b9c1dbc4&quot;&gt;[email&amp;#160;protected]&lt;/a&gt;&lt;script cf-hash='f9e31' type=&quot;text/javascript&quot;&gt;\n/* &lt;![CDATA[ */!function(){try{var t=&quot;currentScript&quot;in document?document.currentScript:function(){for(var t=document.getElementsByTagName(&quot;script&quot;),e=t.length;e--;)if(t[e].getAttribute(&quot;cf-hash&quot;))return t[e]}();if(t&amp;&amp;t.previousSibling){var e,r,n,i,c=t.previousSibling,a=c.getAttribute(&quot;data-cfemail&quot;);if(a){for(e=&quot;&quot;,r=parseInt(a.substr(0,2),16),n=2;a.length-n;n+=2)i=parseInt(a.substr(n,2),16)^r,e+=String.fromCharCode(i);e=document.createTextNode(e),c.parentNode.replaceChild(e,c)}}}catch(u){}}();/* ]]&gt; */&lt;/script&gt;\n Format settings, CABAC : Yes\n Format settings, ReFrames : 3 frames\n Codec ID : avc1\n Codec ID/Info : Advanced Video Coding\n Duration : 1h 37mn\n Bit rate mode : Variable\n Bit rate : 3 000 Kbps\n Maximum bit rate : 13.8 Mbps\n Width : 1 280 pixels\n Height : 528 pixels\n Display aspect ratio : 2.40:1\n Frame rate mode : Constant\n Frame rate : 25.000 fps\n Color space : YUV\n Chroma subsampling : 4:2:0\n Bit depth : 8 bits\n Scan type : Progressive\n Bits/(Pixel*Frame) : 0.178\n Stream size : 2.00 GiB (87%)\n Writing library : x264\n\n Audio\n ID : 2\n Format : AAC\n Format/Info : Advanced Audio Codec\n Format version : Version 4\n Format profile : LC\n Format settings, SBR : No\n Codec ID : 40\n Duration : 1h 37mn\n Bit rate mode : Variable\n Bit rate : 446 Kbps\n Maximum bit rate : 555 Kbps\n Channel(s) : 6 channels\n Channel positions : Front: L C R, Side: L R, LFE\n Sampling rate : 48.0 KHz\n Stream size : 312 MiB (13%)\n\n\n Plot:\n An ex-Boer war guerrilla in New Zealand is sent out to bring back a \n Maori accused of killing a British soldier\n\n\nScreen Shots:\n &lt;a href=&quot;\nhttp://www.pix2links.com/images/39011858586695858445.png&quot; rel=&quot;nofollow&quot; target=&quot;_NEW&quot;&gt;\nhttp://www.pix2links.com/images/39011858586695858445.png&lt;/a&gt;\n &lt;a href=&quot;\nhttp://www.pix2links.com/images/27151769748244901076.png&quot; rel=&quot;nofollow&quot; target=&quot;_NEW&quot;&gt;\nhttp://www.pix2links.com/images/27151769748244901076.png&lt;/a&gt;\n &lt;a href=&quot;\nhttp://www.pix2links.com/images/12621799778000827089.png&quot; rel=&quot;nofollow&quot; target=&quot;_NEW&quot;&gt;\nhttp://www.pix2links.com/images/12621799778000827089.png&lt;/a&gt;\n &lt;a href=&quot;\nhttp://www.pix2links.com/images/67666666611453599230.png&quot; rel=&quot;nofollow&quot; target=&quot;_NEW&quot;&gt;\nhttp://www.pix2links.com/images/67666666611453599230.png&lt;/a&gt;\n &lt;a href=&quot;\nhttp://www.pix2links.com/images/91801972532923719754.png&quot; rel=&quot;nofollow&quot; target=&quot;_NEW&quot;&gt;\nhttp://www.pix2links.com/images/91801972532923719754.png&lt;/a&gt;\n\n######## ######## ######## ##          ######## ########  ######## ######## \n##       ##       ##       ##          ##       ##     ## ##       ##       \n##       ##       ##       ##          ##       ##     ## ##       ##       \n######   ######   ######   ##          ######   ########  ######   ######   \n##       ##       ##       ##          ##       ##   ##   ##       ##       \n##       ##       ##       ##          ##       ##    ##  ##       ##       \n##       ######## ######## ########    ##       ##     ## ######## ########  ","torrent":{"xt":"urn:btih:38c9a6e2091a305b797e73154e2f240481e47f70","amp;dn":"Tracker.2010.720p.BRRip.x264.Feel-Free","amp;tr":["udp%3A%2F%2Ftracker.openbittorrent.com%3A80","udp%3A%2F%2Fopen.demonii.com%3A1337","udp%3A%2F%2Ftracker.coppersurfer.tk%3A6969","udp%3A%2F%2Fexodus.desync.com%3A6969"],"infoHash":"38c9a6e2091a305b797e73154e2f240481e47f70","infoHashBuffer":{"type":"Buffer","data":[56,201,166,226,9,26,48,91,121,126,115,21,78,47,36,4,129,228,127,112]},"announce":[],"urlList":[]}}